<svg width="350" height="230" viewBox="0 0 350 230" fill="none" xmlns="http://www.w3.org/2000/svg">
<rect width="350" height="230" fill="white"/>
<g clip-path="url(#clip0_43_274)">
<path d="M83.0225 94.9911C76.4494 92.1854 68.968 95.5404 66.3123 102.485L54.4999 133.372C61.073 136.178 68.5544 132.823 71.2101 125.878L83.0225 94.9911Z" fill="#3294EE"/>
<path d="M103.08 94.9911C96.5068 92.1854 89.0254 95.5404 86.3697 102.485L74.5573 133.372C81.1303 136.178 88.6118 132.823 91.2675 125.878L103.08 94.9911Z" fill="#454D54"/>
<path d="M107.716 117.566C104.259 116.009 100.743 117.798 98.635 123.209C96.5268 128.621 94.369 133.372 94.369 133.372L95.6507 133.919C101.494 136.413 108.211 133.409 110.388 127.16C111.764 123.209 111.173 119.122 107.716 117.566Z" fill="#454D54"/>
<path d="M142.854 103.337L135.498 116.429L127.938 103.337H122.932V126.058H128.551V114.373L134.068 123.786H136.724L142.241 114.049L142.344 126.058H147.861V103.337H142.854Z" fill="#454D54"/>
<path d="M162.945 116.907C162.945 117.865 162.843 118.61 162.536 119.248C162.229 119.887 161.82 120.313 161.41 120.525C160.899 120.845 160.387 120.951 159.876 120.951C158.955 120.951 158.341 120.632 157.83 120.1C157.318 119.568 157.114 118.61 157.114 117.227V108.501H151.282V118.184C151.282 119.993 151.589 121.483 152.203 122.654C152.817 123.824 153.635 124.675 154.761 125.207C155.886 125.739 157.011 126.059 158.444 126.059C159.671 126.059 160.899 125.739 161.922 125.101C162.434 124.782 162.945 124.356 163.354 123.93V125.846H168.879V108.501H163.047V116.907H162.945Z" fill="#454D54"/>
<path d="M186.052 108.856C185.035 108.311 183.814 107.985 182.593 107.985C181.169 107.985 179.949 108.311 178.83 108.965C178.22 109.291 177.711 109.727 177.304 110.271V108.311H171.812V126.059H177.609V117.457C177.609 116.477 177.711 115.715 178.016 115.062C178.321 114.409 178.728 113.973 179.237 113.755C179.745 113.429 180.254 113.32 180.966 113.32C181.78 113.32 182.492 113.647 182.899 114.191C183.407 114.735 183.611 115.715 183.611 116.913V126.059H189.408V115.933C189.408 114.082 189.103 112.667 188.493 111.469C187.984 110.271 187.171 109.509 186.052 108.856Z" fill="#454D54"/>
<path d="M199.309 113.515C199.822 113.192 200.438 113.084 201.157 113.084C201.876 113.084 202.492 113.299 203.005 113.622C203.621 113.945 204.032 114.59 204.443 115.451L208.96 113.084C208.344 111.578 207.42 110.395 206.085 109.534C204.751 108.673 203.108 108.243 201.157 108.243C199.309 108.243 197.666 108.673 196.228 109.426C194.791 110.179 193.662 111.255 192.84 112.546C192.019 113.837 191.608 115.451 191.608 117.172C191.608 118.894 192.019 120.507 192.84 121.906C193.662 123.304 194.791 124.273 196.228 125.133C197.666 125.886 199.309 126.317 201.157 126.317C203.005 126.317 204.648 125.886 206.085 125.026C207.42 124.165 208.447 122.982 208.96 121.476L204.443 119.109C204.032 119.969 203.519 120.507 203.005 120.938C202.389 121.26 201.773 121.476 201.157 121.476C200.438 121.476 199.822 121.26 199.309 120.938C198.795 120.615 198.282 120.185 197.974 119.539C197.666 118.894 197.461 118.141 197.461 117.28C197.461 116.419 197.666 115.666 197.974 115.021C198.282 114.375 198.795 113.945 199.309 113.515Z" fill="#454D54"/>
<path d="M224.911 108.787C223.894 108.249 222.674 107.926 221.453 107.926C220.029 107.926 218.808 108.249 217.689 108.895C217.181 109.11 216.774 109.541 216.469 109.864V101.788H210.671V125.8H216.469V117.294C216.469 116.325 216.571 115.571 216.876 114.925C217.181 114.279 217.588 113.848 218.096 113.633C218.605 113.31 219.114 113.202 219.724 113.202C220.538 113.202 221.25 113.525 221.758 114.063C222.267 114.602 222.47 115.571 222.47 116.755V125.8H228.268V115.786C228.268 113.956 227.963 112.556 227.352 111.371C226.844 110.187 226.03 109.433 224.911 108.787Z" fill="#454D54"/>
<path d="M246.104 114.095C245.389 113.556 244.573 113.233 243.756 112.909C242.94 112.586 242.021 112.371 241.205 112.155C240.389 111.939 239.572 111.724 238.858 111.616C238.143 111.401 237.531 111.185 237.123 110.862C236.715 110.538 236.51 110.215 236.51 109.676C236.51 109.245 236.612 108.922 236.817 108.598C237.021 108.275 237.429 108.059 237.939 107.844C238.449 107.628 239.164 107.52 239.98 107.52C240.899 107.52 241.919 107.628 242.838 107.952C243.858 108.275 244.879 108.706 245.9 109.245L247.737 104.503C246.716 103.856 245.491 103.425 244.063 103.101C242.736 102.778 241.307 102.563 239.98 102.563C237.837 102.563 236.102 102.886 234.673 103.533C233.245 104.179 232.224 105.042 231.51 106.227C230.795 107.305 230.489 108.598 230.489 109.892C230.489 111.077 230.693 112.155 231.203 112.909C231.612 113.664 232.224 114.311 232.938 114.849C233.653 115.281 234.469 115.712 235.286 116.035C236.204 116.358 237.021 116.574 237.837 116.79C238.756 117.005 239.47 117.221 240.184 117.328C240.899 117.544 241.511 117.76 241.919 118.083C242.328 118.406 242.634 118.837 242.634 119.268C242.634 119.592 242.532 119.915 242.226 120.238C242.021 120.454 241.613 120.67 241.103 120.885C240.593 120.993 239.878 121.101 239.062 121.101C237.837 121.101 236.51 120.885 235.286 120.454C234.061 120.023 232.938 119.484 232.02 118.837L229.979 123.58C230.999 124.334 232.326 124.873 233.959 125.412C235.592 125.843 237.327 126.059 239.062 126.059C241.205 126.059 242.94 125.735 244.369 125.089C245.798 124.442 246.818 123.58 247.533 122.394C248.247 121.316 248.553 120.023 248.553 118.73C248.553 117.544 248.349 116.574 247.839 115.819C247.43 115.281 246.818 114.634 246.104 114.095Z" fill="#454D54"/>
<path d="M268.963 108.507H262.169L256.288 114.645V102.046H250.508V126.059H256.288V121.751L257.91 119.921L262.575 126.059H269.571L262.169 116.044L268.963 108.507Z" fill="#454D54"/>
<path d="M276.659 108.501H270.793V126.059H276.659V108.501Z" fill="#454D54"/>
<path d="M273.604 99.9806C272.591 99.9806 271.68 100.305 271.073 100.955C270.465 101.605 270.06 102.363 270.06 103.337C270.06 104.312 270.364 105.07 271.073 105.719C271.68 106.369 272.591 106.694 273.604 106.694C274.718 106.694 275.528 106.369 276.135 105.719C276.743 105.07 277.148 104.203 277.148 103.337C277.148 102.363 276.844 101.605 276.135 101.063C275.426 100.305 274.616 99.9806 273.604 99.9806Z" fill="#454D54"/>
<path d="M285.457 102.046H279.592V126.059H285.457V102.046Z" fill="#454D54"/>
<path d="M294.5 102.046H288.635V126.059H294.5V102.046Z" fill="#454D54"/>
</g>
<defs>
<clipPath id="clip0_43_274">
<rect width="241" height="42" fill="white" transform="translate(54 94)"/>
</clipPath>
</defs>
</svg>
