<svg width="60" height="25" viewBox="0 0 60 25" fill="none" xmlns="http://www.w3.org/2000/svg">
<path d="M2 19.7443V5.19886H5.07528V17.2088H11.3111V19.7443H2Z" fill="#111827"/>
<path d="M26.1477 12.4716C26.1477 14.0578 25.8471 15.4072 25.2457 16.5199C24.6491 17.6326 23.8348 18.4825 22.8026 19.0696C21.7751 19.652 20.6198 19.9432 19.3366 19.9432C18.044 19.9432 16.884 19.6496 15.8565 19.0625C14.8291 18.4754 14.017 17.6255 13.4205 16.5128C12.8239 15.4001 12.5256 14.053 12.5256 12.4716C12.5256 10.8854 12.8239 9.53599 13.4205 8.4233C14.017 7.31061 14.8291 6.46307 15.8565 5.88068C16.884 5.29356 18.044 5 19.3366 5C20.6198 5 21.7751 5.29356 22.8026 5.88068C23.8348 6.46307 24.6491 7.31061 25.2457 8.4233C25.8471 9.53599 26.1477 10.8854 26.1477 12.4716ZM23.0298 12.4716C23.0298 11.4441 22.8759 10.5777 22.5682 9.87216C22.2652 9.16667 21.8366 8.63163 21.2827 8.26705C20.7287 7.90246 20.08 7.72017 19.3366 7.72017C18.5933 7.72017 17.9446 7.90246 17.3906 8.26705C16.8366 8.63163 16.4058 9.16667 16.098 9.87216C15.795 10.5777 15.6435 11.4441 15.6435 12.4716C15.6435 13.4991 15.795 14.3655 16.098 15.071C16.4058 15.7765 16.8366 16.3116 17.3906 16.6761C17.9446 17.0407 18.5933 17.223 19.3366 17.223C20.08 17.223 20.7287 17.0407 21.2827 16.6761C21.8366 16.3116 22.2652 15.7765 22.5682 15.071C22.8759 14.3655 23.0298 13.4991 23.0298 12.4716Z" fill="#111827"/>
<path d="M38.0707 9.90057C37.9712 9.55492 37.8316 9.24953 37.6516 8.98438C37.4717 8.71449 37.2515 8.48722 36.9911 8.30256C36.7354 8.11316 36.4419 7.96875 36.1104 7.86932C35.7837 7.76989 35.4215 7.72017 35.0238 7.72017C34.2804 7.72017 33.627 7.90483 33.0636 8.27415C32.5049 8.64347 32.0692 9.18087 31.7567 9.88636C31.4442 10.5871 31.288 11.4441 31.288 12.4574C31.288 13.4706 31.4419 14.3324 31.7496 15.0426C32.0574 15.7528 32.493 16.295 33.0565 16.669C33.6199 17.0384 34.2852 17.223 35.0522 17.223C35.7482 17.223 36.3424 17.0999 36.8349 16.8537C37.332 16.6027 37.7108 16.25 37.9712 15.7955C38.2364 15.3409 38.369 14.8035 38.369 14.1832L38.994 14.2756H35.244V11.9602H41.3306V13.7926C41.3306 15.071 41.0607 16.1695 40.521 17.0881C39.9812 18.0019 39.2378 18.7074 38.2908 19.2045C37.3439 19.697 36.2596 19.9432 35.038 19.9432C33.6744 19.9432 32.4764 19.6425 31.4442 19.0412C30.412 18.4351 29.6071 17.5758 29.0295 16.4631C28.4566 15.3456 28.1701 14.0199 28.1701 12.4858C28.1701 11.3068 28.3406 10.2557 28.6815 9.33239C29.0271 8.40436 29.5101 7.61837 30.1303 6.97443C30.7506 6.33049 31.4727 5.84044 32.2965 5.50426C33.1204 5.16809 34.0129 5 34.9741 5C35.7979 5 36.565 5.12074 37.2752 5.36222C37.9854 5.59896 38.6152 5.93513 39.1644 6.37074C39.7184 6.80634 40.1706 7.32481 40.521 7.92614C40.8713 8.52273 41.0962 9.18087 41.1957 9.90057H38.0707Z" fill="#111827"/>
<path d="M57.0071 12.4716C57.0071 14.0578 56.7064 15.4072 56.1051 16.5199C55.5085 17.6326 54.6941 18.4825 53.6619 19.0696C52.6345 19.652 51.4792 19.9432 50.196 19.9432C48.9034 19.9432 47.7434 19.6496 46.7159 19.0625C45.6884 18.4754 44.8764 17.6255 44.2798 16.5128C43.6832 15.4001 43.3849 14.053 43.3849 12.4716C43.3849 10.8854 43.6832 9.53599 44.2798 8.4233C44.8764 7.31061 45.6884 6.46307 46.7159 5.88068C47.7434 5.29356 48.9034 5 50.196 5C51.4792 5 52.6345 5.29356 53.6619 5.88068C54.6941 6.46307 55.5085 7.31061 56.1051 8.4233C56.7064 9.53599 57.0071 10.8854 57.0071 12.4716ZM53.8892 12.4716C53.8892 11.4441 53.7353 10.5777 53.4276 9.87216C53.1245 9.16667 52.696 8.63163 52.142 8.26705C51.5881 7.90246 50.9394 7.72017 50.196 7.72017C49.4527 7.72017 48.804 7.90246 48.25 8.26705C47.696 8.63163 47.2652 9.16667 46.9574 9.87216C46.6544 10.5777 46.5028 11.4441 46.5028 12.4716C46.5028 13.4991 46.6544 14.3655 46.9574 15.071C47.2652 15.7765 47.696 16.3116 48.25 16.6761C48.804 17.0407 49.4527 17.223 50.196 17.223C50.9394 17.223 51.5881 17.0407 52.142 16.6761C52.696 16.3116 53.1245 15.7765 53.4276 15.071C53.7353 14.3655 53.8892 13.4991 53.8892 12.4716Z" fill="#111827"/>
</svg>
